<?xml version="1.0" encoding="UTF-8" standalone="yes"?>
<svg version="1.1" viewBox="0.0 0.0 423.0 334.0" fill="none" stroke="none" stroke-linecap="square" stroke-miterlimit="10" xmlns="http://www.w3.org/2000/svg" xmlns:xlink="http://www.w3.org/1999/xlink"><clipPath id="p.0"><path d="m0 0l423.0 0l0 334.0l-423.0 0l0 -334.0z" clip-rule="nonzero"/></clipPath><g clip-path="url(#p.0)"><path fill="#000000" fill-opacity="0.0" d="m0 0l423.04724 0l0 334.75854l-423.04724 0z" fill-rule="nonzero"/><path fill="#cfe2f3" d="m202.03564 16.85202l0 0c69.901215 12.322329 126.91214 66.92741 142.37439 136.36623c15.46225 69.43881 -13.969086 138.68977 -73.49945 172.9416l-88.89992 -145.42638z" fill-rule="nonzero"/><path stroke="#000000" stroke-width="2.0" stroke-linejoin="round" stroke-linecap="butt" d="m202.03564 16.85202l0 0c69.901215 12.322329 126.91214 66.92741 142.37439 136.36623c15.46225 69.43881 -13.969086 138.68977 -73.49945 172.9416l-88.89992 -145.42638z" fill-rule="nonzero"/><path fill="#6fa8dc" d="m97.590256 86.0186l0 0c27.698242 -15.991432 55.514114 -19.66806 62.12848 -8.211967l0 0c3.1763306 5.5014114 0.93870544 13.82811 -6.220627 23.148315c-7.1593475 9.320213 -18.65393 18.870468 -31.955101 26.549828l0 0c-27.698242 15.99144 -55.514114 19.66806 -62.128487 8.21196l0 0c-6.6143684 -11.456085 10.477486 -33.706696 38.175735 -49.698135z" fill-rule="nonzero"/><path stroke="#434343" stroke-width="4.0" stroke-linejoin="round" stroke-linecap="butt" d="m97.590256 86.0186l0 0c27.698242 -15.991432 55.514114 -19.66806 62.12848 -8.211967l0 0c3.1763306 5.5014114 0.93870544 13.82811 -6.220627 23.148315c-7.1593475 9.320213 -18.65393 18.870468 -31.955101 26.549828l0 0c-27.698242 15.99144 -55.514114 19.66806 -62.128487 8.21196l0 0c-6.6143684 -11.456085 10.477486 -33.706696 38.175735 -49.698135z" fill-rule="nonzero"/><path fill="#434343" d="m72.121086 116.852135l69.898964 -28.827255l-59.91471 46.119987z" fill-rule="nonzero"/><path stroke="#434343" stroke-width="4.0" stroke-linejoin="round" stroke-linecap="butt" d="m72.121086 116.852135l69.898964 -28.827255l-59.91471 46.119987z" fill-rule="nonzero"/><path fill="#6aa84f" d="m165.07399 163.79697l0 0c22.615173 -22.615173 48.53134 -33.365448 57.885376 -24.011398l0 0c4.491974 4.4919586 4.485779 13.114151 -0.017242432 23.969757c-4.503006 10.855621 -13.133957 23.055435 -23.994156 33.91562l0 0c-22.615173 22.615173 -48.53134 33.365448 -57.885376 24.011398l0 0c-9.35405 -9.354034 1.396225 -35.270203 24.011398 -57.885376z" fill-rule="nonzero"/><path stroke="#000000" stroke-width="4.0" stroke-linejoin="round" stroke-linecap="butt" d="m165.07399 163.79697l0 0c22.615173 -22.615173 48.53134 -33.365448 57.885376 -24.011398l0 0c4.491974 4.4919586 4.485779 13.114151 -0.017242432 23.969757c-4.503006 10.855621 -13.133957 23.055435 -23.994156 33.91562l0 0c-22.615173 22.615173 -48.53134 33.365448 -57.885376 24.011398l0 0c-9.35405 -9.354034 1.396225 -35.270203 24.011398 -57.885376z" fill-rule="nonzero"/><path fill="#000000" d="m148.45341 200.17178l60.055252 -45.93553l-45.935516 60.055267z" fill-rule="nonzero"/><path stroke="#000000" stroke-width="4.0" stroke-linejoin="round" stroke-linecap="butt" d="m148.45341 200.17178l60.055252 -45.93553l-45.935516 60.055267z" fill-rule="nonzero"/></g></svg>