<?xml version="1.0" encoding="UTF-8" standalone="yes"?>
<svg version="1.1" viewBox="0.0 0.0 613.0 546.0" fill="none" stroke="none" stroke-linecap="square" stroke-miterlimit="10" xmlns="http://www.w3.org/2000/svg" xmlns:xlink="http://www.w3.org/1999/xlink"><clipPath id="p.0"><path d="m0 0l613.0 0l0 546.0l-613.0 0l0 -546.0z" clip-rule="nonzero"/></clipPath><g clip-path="url(#p.0)"><path fill="#000000" fill-opacity="0.0" d="m0 0l613.2651 0l0 546.35693l-613.2651 0z" fill-rule="nonzero"/><path fill="#3d85c6" d="m241.86984 144.51408l0 0c22.615173 -22.615173 48.53134 -33.36544 57.885376 -24.011398l0 0c4.491974 4.4919662 4.485779 13.114151 -0.017242432 23.969772c-4.5030212 10.855606 -13.133972 23.05542 -23.99414 33.915604l0 0c-22.615189 22.615173 -48.531357 33.365448 -57.88539 24.011398l0 0c-9.35405 -9.354034 1.396225 -35.270203 24.011398 -57.885376z" fill-rule="nonzero"/><path stroke="#000000" stroke-width="4.0" stroke-linejoin="round" stroke-linecap="butt" d="m241.86984 144.51408l0 0c22.615173 -22.615173 48.53134 -33.36544 57.885376 -24.011398l0 0c4.491974 4.4919662 4.485779 13.114151 -0.017242432 23.969772c-4.5030212 10.855606 -13.133972 23.05542 -23.99414 33.915604l0 0c-22.615189 22.615173 -48.531357 33.365448 -57.88539 24.011398l0 0c-9.35405 -9.354034 1.396225 -35.270203 24.011398 -57.885376z" fill-rule="nonzero"/><path fill="#000000" d="m225.24927 180.8889l60.055267 -45.935516l-45.93553 60.055252z" fill-rule="nonzero"/><path stroke="#000000" stroke-width="4.0" stroke-linejoin="round" stroke-linecap="butt" d="m225.24927 180.8889l60.055267 -45.935516l-45.93553 60.055252z" fill-rule="nonzero"/><path fill="#6aa84f" d="m231.43134 292.39334l0 0c21.97792 -21.977936 47.377502 -32.21161 56.731537 -22.857544l0 0c4.491974 4.491974 4.6073303 12.992584 0.32070923 23.631805c-4.286621 10.639221 -12.624084 22.545563 -23.178253 33.0997l0 0c-21.97792 21.977936 -47.377487 32.21161 -56.731537 22.857544l0 0c-9.354034 -9.354034 0.8796387 -34.7536 22.857544 -56.731506z" fill-rule="nonzero"/><path stroke="#000000" stroke-width="4.0" stroke-linejoin="round" stroke-linecap="butt" d="m231.43134 292.39334l0 0c21.97792 -21.977936 47.377502 -32.21161 56.731537 -22.857544l0 0c4.491974 4.491974 4.6073303 12.992584 0.32070923 23.631805c-4.286621 10.639221 -12.624084 22.545563 -23.178253 33.0997l0 0c-21.97792 21.977936 -47.377487 32.21161 -56.731537 22.857544l0 0c-9.354034 -9.354034 0.8796387 -34.7536 22.857544 -56.731506z" fill-rule="nonzero"/><path fill="#000000" d="m215.55743 328.02148l58.56192 -44.4422l-44.4422 58.56195z" fill-rule="nonzero"/><path stroke="#000000" stroke-width="4.0" stroke-linejoin="round" stroke-linecap="butt" d="m215.55743 328.02148l58.56192 -44.4422l-44.4422 58.56195z" fill-rule="nonzero"/><path fill="#134f5c" d="m362.42783 151.14174l247.52756 0l0 247.52754l-247.52756 0z" fill-rule="nonzero"/><path stroke="#000000" stroke-width="4.0" stroke-linejoin="round" stroke-linecap="butt" d="m362.42783 151.14174l247.52756 0l0 247.52754l-247.52756 0z" fill-rule="nonzero"/><path fill="#3d85c6" d="m73.96719 323.73044l0 0c22.615173 -22.615173 48.53134 -33.365448 57.88539 -24.011414l0 0c4.4919586 4.491974 4.4857635 13.114166 -0.017242432 23.969788c-4.5030136 10.855591 -13.133972 23.05542 -23.994164 33.91562l0 0c-22.615173 22.615173 -48.531338 33.365417 -57.885384 24.011383l0 0c-9.354042 -9.354034 1.3962288 -35.270203 24.011398 -57.885376z" fill-rule="nonzero"/><path stroke="#434343" stroke-width="4.0" stroke-linejoin="round" stroke-linecap="butt" d="m73.96719 323.73044l0 0c22.615173 -22.615173 48.53134 -33.365448 57.88539 -24.011414l0 0c4.4919586 4.491974 4.4857635 13.114166 -0.017242432 23.969788c-4.5030136 10.855591 -13.133972 23.05542 -23.994164 33.91562l0 0c-22.615173 22.615173 -48.531338 33.365417 -57.885384 24.011383l0 0c-9.354042 -9.354034 1.3962288 -35.270203 24.011398 -57.885376z" fill-rule="nonzero"/><path fill="#434343" d="m57.34663 360.10526l60.055256 -45.935516l-45.93553 60.055237z" fill-rule="nonzero"/><path stroke="#434343" stroke-width="4.0" stroke-linejoin="round" stroke-linecap="butt" d="m57.34663 360.10526l60.055256 -45.935516l-45.93553 60.055237z" fill-rule="nonzero"/><path fill="#134f5c" d="m362.42783 398.66928l247.52756 0l0 247.52756l-247.52756 0z" fill-rule="nonzero"/><path stroke="#000000" stroke-width="4.0" stroke-linejoin="round" stroke-linecap="butt" d="m362.42783 398.66928l247.52756 0l0 247.52756l-247.52756 0z" fill-rule="nonzero"/><path fill="#93c47d" d="m43.103264 481.4957l0 0c21.977913 -21.977936 47.377487 -32.21161 56.73153 -22.857544l0 0c4.4919662 4.491974 4.6073303 12.992584 0.32070923 23.631805c-4.286621 10.639221 -12.624084 22.545563 -23.178253 33.09973l0 0c-21.977917 21.977905 -47.377487 32.211548 -56.73153 22.857544l0 0c-9.354043 -9.354065 0.8796272 -34.75363 22.857544 -56.731537z" fill-rule="nonzero"/><path stroke="#666666" stroke-width="4.0" stroke-linejoin="round" stroke-linecap="butt" d="m43.103264 481.4957l0 0c21.977913 -21.977936 47.377487 -32.21161 56.73153 -22.857544l0 0c4.4919662 4.491974 4.6073303 12.992584 0.32070923 23.631805c-4.286621 10.639221 -12.624084 22.545563 -23.178253 33.09973l0 0c-21.977917 21.977905 -47.377487 32.211548 -56.73153 22.857544l0 0c-9.354043 -9.354065 0.8796272 -34.75363 22.857544 -56.731537z" fill-rule="nonzero"/><path fill="#666666" d="m27.229357 517.12384l58.561935 -44.4422l-44.442204 58.56195z" fill-rule="nonzero"/><path stroke="#666666" stroke-width="4.0" stroke-linejoin="round" stroke-linecap="butt" d="m27.229357 517.12384l58.561935 -44.4422l-44.442204 58.56195z" fill-rule="nonzero"/><path fill="#000000" fill-opacity="0.0" d="m290.97638 196.72704c-10.940521 13.297028 -36.35565 50.663605 -65.64305 79.78215c-29.2874 29.11856 -79.11067 63.45407 -110.08136 94.92914c-30.970688 31.475067 -57.22791 73.21829 -75.74278 93.921265c-18.514874 20.702972 -29.45538 25.247162 -35.346455 30.29657" fill-rule="nonzero"/><path stroke="#000000" stroke-width="4.0" stroke-linejoin="round" stroke-linecap="butt" d="m290.97638 196.72704c-10.940521 13.297028 -36.35565 50.663605 -65.64305 79.78215c-29.2874 29.11856 -79.11067 63.45407 -110.08136 94.92914c-30.970688 31.475067 -57.22791 73.21829 -75.74278 93.921265c-18.514874 20.702972 -29.45538 25.247162 -35.346455 30.29657" fill-rule="nonzero"/><path fill="#38761d" d="m278.11157 185.5643l12.860748 -1.6784668E-4l6.4305725 -10.3541565l6.430542 10.3541565l12.860779 1.6784668E-4l-6.430237 10.35434l6.430237 10.354324l-12.860779 1.8310547E-4l-6.430542 10.3541565l-6.4305725 -10.3541565l-12.860748 -1.8310547E-4l6.4302063 -10.354324z" fill-rule="nonzero"/><path stroke="#000000" stroke-width="4.0" stroke-linejoin="round" stroke-linecap="butt" d="m278.11157 185.5643l12.860748 -1.6784668E-4l6.4305725 -10.3541565l6.430542 10.3541565l12.860779 1.6784668E-4l-6.430237 10.35434l6.430237 10.354324l-12.860779 1.8310547E-4l-6.430542 10.3541565l-6.4305725 -10.3541565l-12.860748 -1.8310547E-4l6.4302063 -10.354324z" fill-rule="nonzero"/><path fill="#000000" fill-opacity="0.0" d="m229.49869 139.43307l139.43307 -139.43307l113.165344 113.16535l-139.43307 139.43307z" fill-rule="nonzero"/><path stroke="#ff0000" stroke-width="4.0" stroke-linejoin="round" stroke-linecap="butt" stroke-dasharray="16.0,12.0" d="m229.49869 139.43307l139.43307 -139.43307l113.165344 113.16535l-139.43307 139.43307z" fill-rule="nonzero"/></g></svg>